<?xml version="1.0" standalone="no"?>
<!DOCTYPE svg PUBLIC "-//W3C//DTD SVG 20010904//EN"
 "http://www.w3.org/TR/2001/REC-SVG-20010904/DTD/svg10.dtd">
<svg version="1.0" xmlns="http://www.w3.org/2000/svg"
 width="640.000000pt" height="1280.000000pt" viewBox="0 0 640.000000 1280.000000"
 preserveAspectRatio="xMidYMid meet">
<metadata>
Created by potrace 1.15, written by Peter Selinger 2001-2017
</metadata>
<g transform="translate(0.000000,1280.000000) scale(0.100000,-0.100000)"
fill="#000000" stroke="none">
<path d="M2985 12788 c-366 -41 -729 -203 -1017 -454 -171 -149 -321 -345
-427 -559 -108 -215 -166 -410 -190 -637 -13 -115 -14 -268 -3 -286 26 -40
530 -136 932 -177 405 -41 588 -49 1150 -49 555 -1 694 5 1010 40 249 28 533
86 588 120 21 14 22 20 22 162 -1 432 -140 827 -411 1161 -400 495 -1023 751
-1654 679z"/>
<path d="M4980 10560 c-34 -19 -262 -83 -400 -110 -149 -30 -288 -49 -515 -72
-173 -17 -940 -17 -1180 0 -446 32 -866 77 -1259 137 -126 19 -232 33 -234 30
-6 -6 17 -98 50 -200 92 -277 298 -591 510 -778 l65 -57 129 -19 c346 -53 690
-76 1124 -75 425 0 726 19 1020 66 l75 11 135 136 c233 234 390 493 474 782
43 151 44 172 6 149z"/>
<path d="M2020 9273 c0 -21 11 -214 25 -428 31 -496 93 -1549 145 -2455 22
-388 49 -862 60 -1055 11 -192 29 -512 40 -710 80 -1419 166 -2864 210 -3513
14 -196 25 -303 34 -320 38 -74 163 -136 356 -178 70 -16 127 -19 320 -19 274
1 367 16 507 85 114 56 133 83 144 203 52 582 133 1946 219 3712 82 1685 111
2252 145 2865 37 663 90 1467 114 1735 4 50 8 91 7 91 -1 1 -46 -4 -101 -12
-306 -40 -474 -49 -975 -49 -398 0 -534 4 -695 18 -213 19 -509 54 -537 63
-15 4 -18 -1 -18 -33z"/>
<path d="M2732 368 c4 -193 15 -234 78 -295 67 -65 79 -68 359 -71 153 -2 274
1 303 8 69 14 128 58 161 118 26 49 27 53 27 227 0 165 -1 177 -17 170 -10 -4
-61 -19 -113 -33 -88 -24 -111 -26 -305 -26 -220 -1 -300 9 -432 55 -31 10
-58 19 -61 19 -2 0 -2 -78 0 -172z"/>
</g>
</svg>
